<svg xmlns="http://www.w3.org/2000/svg" width="40" height="40" fill="none" viewBox="0 0 40 40"><path fill="#fff" d="M36.812 6.22 26.937 1a5.95 5.95 0 0 0-4.564-.43 5.949 5.949 0 0 0-3.53 2.924 5.948 5.948 0 0 0-.428 4.563 5.949 5.949 0 0 0 2.924 3.53l9.875 5.221a5.941 5.941 0 0 0 2.789.694 5.998 5.998 0 0 0 5.304-3.189 5.995 5.995 0 0 0-2.495-8.093Zm-14.925 4.33a4.784 4.784 0 0 1-2.351-2.838 4.784 4.784 0 0 1 .345-3.67 4.784 4.784 0 0 1 2.838-2.35 4.79 4.79 0 0 1 3.67.345l4.418 2.336-4.501 8.514-4.42-2.337Zm16.383 3.215a4.82 4.82 0 0 1-6.508 2.006l-4.42-2.336 4.502-8.514 4.42 2.336a4.82 4.82 0 0 1 2.006 6.508ZM14.066 13.002a.586.586 0 0 0-.049 1.172c1.194.05 2.32.54 3.174 1.377a4.783 4.783 0 0 1 1.44 3.393 4.784 4.784 0 0 1-1.381 3.417l-3.504 3.565-6.869-6.75 3.504-3.566a4.809 4.809 0 0 1 1.28-.932.586.586 0 1 0-.525-1.05 5.977 5.977 0 0 0-1.592 1.16l-7.83 7.967a5.996 5.996 0 0 0 .29 8.67c1.355 1.21 3.23 1.774 5.017 1.427 1.228-.238 2.354-.805 3.235-1.702l7.83-7.967a5.95 5.95 0 0 0 1.717-4.25 5.949 5.949 0 0 0-1.79-4.218 5.975 5.975 0 0 0-3.947-1.713ZM9.42 30.328a4.829 4.829 0 0 1-3.393 1.44 4.798 4.798 0 0 1-3.417-1.381 4.82 4.82 0 0 1-.059-6.81l3.504-3.565 6.869 6.75-3.504 3.566ZM22.554 26.531a7.71 7.71 0 0 0-2.237 6.03.586.586 0 1 0 1.17-.086 6.538 6.538 0 0 1 1.897-5.115 6.548 6.548 0 0 1 9.249 0 6.547 6.547 0 0 1 0 9.25 6.497 6.497 0 0 1-4.625 1.915c-1.747 0-3.389-.68-4.624-1.916a6.53 6.53 0 0 1-1.244-1.733.586.586 0 1 0-1.052.519 7.702 7.702 0 0 0 1.466 2.044 7.663 7.663 0 0 0 5.454 2.259c2.06 0 3.997-.802 5.454-2.26 3.007-3.006 3.007-7.9 0-10.907-3.007-3.007-7.9-3.007-10.908 0Z"/><path fill="#fff" d="M30.565 35.129a.585.585 0 0 0 .415-1.002l-5.114-5.114a.587.587 0 0 0-.83.83l5.115 5.114a.585.585 0 0 0 .414.172Z"/></svg>